# xmcd
#
# Track frame offsets: 
#        150
#        12746
#        24924
#        39620
#        50858
#        65972
#        75599
#        89230
#        106404
#        118529
#        134146
#        150837
#        163178
#        179017
#        194298
#        207863
#        222981
#        239086
#        252788
#        267141
#
# Disc length: 3733 seconds
#
# Revision: 1
# Processed by: cddbd v1.5.2PL0 Copyright (c) Steve Scherf et al.
# Submitted via: ExactAudioCopyFreeDBPlugin 1.0
#
DISCID=310e9314
DTITLE=Various Artist - Country The Collection CD3
DYEAR=2014
DGENRE=Country
TTITLE0=Honky Tonk Man (2006 Remastered Lp Version) - Dwight Yoakam
TTITLE1=Shotgun Willie (Remastered Version) - Willie Nelson
TTITLE2=Dueling Banjos - Eric Weissberg and Deliverance
TTITLE3=Sold (The Grundy County Auction Incident) (Remastered Version)
TTITLE3=John Michael Montgomery
TTITLE4=Still In Love With You - Travis Tritt
TTITLE5=Old Home Place - The Dillards
TTITLE6=Drink, Swear, Steal and Lie - Michael Peterson
TTITLE7=Border Town - The Souther-Hillman-Furay Band
TTITLE8=Wild And Blue - John Anderson
TTITLE9=God Blessed Texas (Remastered Album Version) - Little Texas
TTITLE10=Polk Salad Annie - Tony Joe White
TTITLE11=That's Enough Of That - Mila Mason
TTITLE12=The Shake (Remastered Album Version) - Neal Mccoy
TTITLE13=Keep Your Hands To Yourself - Georgia Satellites
TTITLE14=Time Marches On (2007 Remastered Album Version) - Tracy Lawre
TTITLE14=nce
TTITLE15=My Heart Has A History - Paul Brandt
TTITLE16=Cowboy Logic - Michael Martin Murphey
TTITLE17=Whiskey, If You Were A Woman - Highway 101
TTITLE18=Rita Ballou - Guy Clark
TTITLE19=Streets Of Baltimore - Gram Parsons
EXTD=
EXTT0=
EXTT1=
EXTT2=
EXTT3=
EXTT4=
EXTT5=
EXTT6=
EXTT7=
EXTT8=
EXTT9=
EXTT10=
EXTT11=
EXTT12=
EXTT13=
EXTT14=
EXTT15=
EXTT16=
EXTT17=
EXTT18=
EXTT19=
PLAYORDER=
